<svg height="512" viewBox="0 0 128 128" width="512" xmlns="http://www.w3.org/2000/svg"><g><path d="m92.07 84.707c-.767-10.55-.872-17.054 5.886-28.038 7.054-11.464 11.144-32.263 3.444-50.839a1.75 1.75 0 1 0 -3.233 1.34c7.229 17.441 3.415 36.934-3.187 47.665-.854 1.388-1.6 2.709-2.26 3.985-.01.019-.024.035-.033.055-1.1 2.3-6.035 7.7-10.5 10.962a1.75 1.75 0 1 0 2.064 2.826 49.845 49.845 0 0 0 4.816-4.072c-1.157 5.276-.927 10.256-.482 16.369a38.62 38.62 0 0 0 2.5 10.34h-54.161a38.62 38.62 0 0 0 2.5-10.34c.445-6.113.675-11.093-.482-16.369a49.845 49.845 0 0 0 4.816 4.072 1.75 1.75 0 1 0 2.064-2.826c-4.466-3.262-9.4-8.665-10.5-10.962-.009-.02-.023-.036-.033-.055-.662-1.276-1.406-2.6-2.26-3.985-6.607-10.735-10.421-30.224-3.192-47.665a1.75 1.75 0 1 0 -3.237-1.34c-7.7 18.576-3.614 39.375 3.44 50.839 6.76 10.984 6.66 17.488 5.89 28.038-.314 4.311-1.869 8.364-3.671 13.058-2.5 6.5-5.324 13.871-5.324 23.735a1.75 1.75 0 0 0 3.5 0c0-9.216 2.705-16.263 5.091-22.48.029-.074.056-.147.084-.22h56.78c.028.073.055.146.084.22 2.386 6.217 5.091 13.264 5.091 22.48a1.75 1.75 0 0 0 3.5 0c0-9.864-2.828-17.233-5.324-23.735-1.802-4.694-3.357-8.747-3.671-13.058z"/><path d="m97.729 30.244h.034a1.751 1.751 0 0 0 1.749-1.717 55.7 55.7 0 0 0 -.224-6.2 1.749 1.749 0 1 0 -3.484.322 52.573 52.573 0 0 1 .208 5.816 1.75 1.75 0 0 0 1.717 1.779z"/><path d="m67.667 78.519a1.75 1.75 0 0 0 .812 2.338 23.556 23.556 0 0 1 6.5 4.846 1.75 1.75 0 1 0 2.5-2.443 27 27 0 0 0 -7.479-5.553 1.752 1.752 0 0 0 -2.333.812z"/><path d="m58 77.707a27 27 0 0 0 -7.479 5.553 1.75 1.75 0 0 0 2.5 2.44 23.556 23.556 0 0 1 6.5-4.846 1.75 1.75 0 0 0 -1.521-3.147z"/><path d="m68.222 53.735c5.432 3.9 14.4 5.046 14.778 5.093a1.971 1.971 0 0 0 .216.013 1.75 1.75 0 0 0 .213-3.487c-.084-.01-8.464-1.085-13.166-4.461a1.749 1.749 0 1 0 -2.041 2.842z"/><path d="m68.2 43.138c7.337 5.457 16.348 5.968 19.466 5.968.637 0 1.028-.021 1.108-.026a1.75 1.75 0 0 0 1.642-1.852 1.768 1.768 0 0 0 -1.852-1.641c-.108 0-10.454.56-18.276-5.257a1.75 1.75 0 1 0 -2.088 2.808z"/><path d="m60.18 51.293a1.751 1.751 0 0 0 -2.443-.4c-4.7 3.376-13.082 4.451-13.166 4.461a1.75 1.75 0 0 0 .213 3.487 1.971 1.971 0 0 0 .216-.013c.38-.047 9.346-1.191 14.778-5.093a1.751 1.751 0 0 0 .402-2.442z"/><path d="m39.228 49.08c.08.005.47.026 1.108.026 3.118 0 12.13-.511 19.466-5.968a1.75 1.75 0 1 0 -2.088-2.808c-7.789 5.793-18.169 5.26-18.276 5.257a1.75 1.75 0 1 0 -.21 3.493z"/></g></svg>