<svg height="512" viewBox="0 0 128 128" width="512" xmlns="http://www.w3.org/2000/svg"><g><path d="m77.859 43.772c-.031-.032-.065-.063-.1-.092l-.093-.08a2.83 2.83 0 0 0 -3.825.172l-19.32 19.321a1.749 1.749 0 0 0 0 2.475l8.321 8.321a1.748 1.748 0 0 0 2.474 0l19.322-19.321a2.857 2.857 0 0 0 .125-3.88zm-13.78 26.405-5.846-5.846 17.618-17.619 5.849 5.846z"/><path d="m91.416 39.468 10.737-10.737a1.75 1.75 0 1 0 -2.475-2.474l-10.737 10.736-.333-.333a4.847 4.847 0 0 0 -6.843 0l-1.665 1.668a8.621 8.621 0 0 0 -10.315 1.385l-30.263 30.261-.874-.873a4.022 4.022 0 0 0 -5.68 0l-2.068 2.071a4.022 4.022 0 0 0 0 5.681l5.419 5.418-6.459 6.456-3.268-3.269a5.006 5.006 0 0 0 -7.071 0l-.681.681a5 5 0 0 0 0 7.071l16.36 16.359a5 5 0 0 0 7.072 0l.68-.681a5.007 5.007 0 0 0 0-7.071l-3.268-3.268 6.455-6.455 5.419 5.419a4.021 4.021 0 0 0 5.681 0l2.071-2.071a4.022 4.022 0 0 0 0-5.681l-.873-.873 30.263-30.261a8.619 8.619 0 0 0 1.381-10.311l1.672-1.672a4.844 4.844 0 0 0 0-6.842zm-50.939 66.946-.681.68a1.537 1.537 0 0 1 -2.122 0l-16.359-16.359a1.5 1.5 0 0 1 0-2.121l.681-.68a1.5 1.5 0 0 1 2.121 0l16.359 16.359a1.5 1.5 0 0 1 .001 2.121zm-3.269-10.34-4.873-4.874 6.456-6.455 4.872 4.872zm19.626-3.107-2.071 2.071a.518.518 0 0 1 -.731 0l-20.66-20.66a.518.518 0 0 1 0-.732l2.07-2.07a.519.519 0 0 1 .732 0l2.11 2.11 16.44 16.439 2.11 2.111a.517.517 0 0 1 0 .731zm29.3-53.832 3.141 3.141a1.341 1.341 0 0 1 0 1.893l-1.45 1.45-5.035-5.034 1.45-1.45a1.38 1.38 0 0 1 1.893 0zm.089 17.017-30.262 30.261-13.961-13.964 30.26-30.261a5.1 5.1 0 0 1 6.892-.268c.1.086.2.172.294.268l6.779 6.778c.091.091.175.189.26.286a5.1 5.1 0 0 1 -.263 6.9z"/><path d="m48.387 71.18a1.75 1.75 0 0 0 -2.474 2.475l2.062 2.062a1.75 1.75 0 0 0 2.475-2.474z"/><path d="m52.466 67.1a1.75 1.75 0 1 0 -2.475 2.475l2.063 2.062a1.749 1.749 0 1 0 2.474-2.474z"/><path d="m105.543 36.283a1.81 1.81 0 0 0 -2.753 0c-1.222 1.558-5.207 6.876-5.207 9.913a6.584 6.584 0 0 0 13.167 0c0-3.037-3.985-8.356-5.207-9.913zm-1.376 13a3.087 3.087 0 0 1 -3.084-3.083c0-.969 1.427-3.509 3.084-5.887 1.657 2.377 3.083 4.916 3.083 5.887a3.086 3.086 0 0 1 -3.083 3.079z"/></g></svg>