<svg id="Capa_1" enable-background="new 0 0 512 512" height="512" viewBox="0 0 512 512" width="512" xmlns="http://www.w3.org/2000/svg"><g><path  d="m242.551 338.551-11.9-5.538c13.238-14.985 21.297-34.648 21.297-56.168v-51.241l10.219-20.139c4.91-9.678 4.551-21.037-.962-30.385-5.512-9.348-15.278-15.159-26.123-15.545-.096-.003-.178-.067-.204-.16-3.827-13.574-16.25-22.952-30.296-22.952-.16 0-.321.001-.48.003l-94.689 1.198c-5.44.081-10.618-1.961-14.537-5.756l-12.465-12.068c-2.526-2.445-6.097-3.507-9.552-2.839-3.447.667-6.357 2.975-7.786 6.177-9.106 20.419-11.18 39.969-6.164 58.106 3.083 11.146 12.139 19.485 23.142 22.018v42.243c0 4.142 3.358 7.5 7.5 7.5s7.5-3.358 7.5-7.5v-41.427h99.622c4.913 0 9.438 3.083 11.528 7.854 4.582 10.455 14.244 16.733 28.747 18.735v46.178c0 38.57-31.379 69.949-69.949 69.949-38.569 0-69.948-31.379-69.948-69.949v-1.354c0-4.143-3.358-7.5-7.5-7.5s-7.5 3.357-7.5 7.5v1.354c0 21.52 8.059 41.183 21.297 56.168l-11.9 5.538c-17.636 8.207-29.031 26.079-29.031 45.531v113.114c0 8.163 6.641 14.804 14.804 14.804h17.597c4.142 0 7.5-3.357 7.5-7.5s-3.358-7.5-7.5-7.5h-17.4v-112.917c0-13.642 7.992-26.176 20.36-31.932l17.372-8.085c6.908 5.341 14.648 9.652 23.005 12.679v12.489c0 15.905 12.939 28.845 28.845 28.845s28.845-12.939 28.845-28.845v-12.489c8.356-3.026 16.096-7.337 23.005-12.678l17.372 8.085c12.368 5.756 20.36 18.289 20.36 31.932v112.916h-131.776c-4.142 0-7.5 3.357-7.5 7.5s3.358 7.5 7.5 7.5h131.972c8.163 0 14.804-6.641 14.804-14.804v-113.113c0-19.453-11.396-37.325-29.031-45.532zm-20.61-132.639c-4.481-10.226-14.399-16.834-25.267-16.834h-107.607c-7.316 0-13.772-4.866-15.7-11.833-3.67-13.27-2.668-27.175 3.074-42.347l8.002 7.747c6.793 6.577 15.749 10.095 25.179 9.978l94.689-1.198c.084-.001.168-.002.252-.002 7.367 0 13.874 4.912 15.878 12.021 1.801 6.391 7.47 10.843 14.106 11.08 5.788.206 10.795 3.186 13.737 8.175s3.126 10.813.506 15.978l-8.771 17.284c-12.783-1.448-16.448-6.33-18.078-10.049zm-41.096 163.321c0 7.634-6.211 13.845-13.845 13.845s-13.845-6.211-13.845-13.845v-8.585c4.508.742 9.129 1.146 13.845 1.146s9.337-.404 13.845-1.146z"/><path d="m138.217 247.93c-4.142 0-7.5 3.358-7.5 7.5v.88c0 4.142 3.358 7.5 7.5 7.5s7.5-3.357 7.5-7.5v-.88c0-4.142-3.358-7.5-7.5-7.5z"/><path d="m195.783 263.809c4.142 0 7.5-3.357 7.5-7.5v-.88c0-4.142-3.358-7.5-7.5-7.5s-7.5 3.358-7.5 7.5v.88c0 4.143 3.357 7.5 7.5 7.5z"/><path d="m177.264 291.148c-7.002 4.189-13.526 4.189-20.529 0-3.555-2.128-8.161-.968-10.287 2.587s-.968 8.159 2.586 10.286c5.876 3.515 11.921 5.272 17.965 5.272s12.089-1.758 17.965-5.272c3.555-2.127 4.712-6.732 2.586-10.287-2.125-3.554-6.73-4.711-10.286-2.586z"/><path d="m411.768 75.66-48.705-28.12c-2.32-1.34-5.18-1.34-7.5 0l-48.705 28.12c-2.041 1.178-3.409 3.248-3.694 5.587l-1.728 14.15c-3.495 28.661 8.829 57.027 32.163 74.031l21.297 15.52c2.633 1.918 6.201 1.918 8.834 0l21.297-15.52c23.333-17.004 35.657-45.371 32.162-74.03l-1.726-14.15c-.285-2.341-1.654-4.41-3.695-5.588zm-35.575 81.645-16.88 12.301-16.88-12.301c-18.94-13.802-28.944-36.828-26.107-60.091l1.273-10.435 41.714-24.083 41.713 24.083 1.272 10.435c2.839 23.263-7.164 46.289-26.105 60.091z"/><path d="m230.648 451.448c4.142 0 7.5-3.357 7.5-7.5s-3.358-7.5-7.5-7.5h-34.865c-4.142 0-7.5 3.357-7.5 7.5s3.358 7.5 7.5 7.5z"/><path d="m372.315 104.836h-26.005c-4.143 0-7.5 3.358-7.5 7.5s3.357 7.5 7.5 7.5h26.005c4.143 0 7.5-3.358 7.5-7.5s-3.357-7.5-7.5-7.5z"/><path d="m451.769 55.674c-.285-2.339-1.653-4.409-3.694-5.587l-85.012-49.082c-2.32-1.34-5.18-1.34-7.5 0l-85.013 49.082c-2.041 1.178-3.409 3.248-3.694 5.587l-3.014 24.698c-5.855 48.014 14.79 95.536 53.881 124.021l37.173 27.088c2.633 1.918 6.201 1.918 8.834 0l37.172-27.088c24.064-17.536 41.77-42.988 49.854-71.668 1.124-3.987-1.197-8.129-5.184-9.253-3.985-1.123-8.13 1.197-9.254 5.184-7.177 25.458-22.892 48.051-44.251 63.615l-32.755 23.87-32.756-23.87c-34.697-25.284-53.022-67.465-47.824-110.082l2.559-20.983 78.021-45.045 78.021 45.045c1.844 17.175 3.818 25.173 3.351 39.26-.137 4.14 3.108 7.607 7.248 7.744 4.162.105 7.606-3.108 7.744-7.248.524-15.847-1.665-24.496-3.907-45.288z"/></g></svg>