<svg height="512" viewBox="0 0 128 128" width="512" xmlns="http://www.w3.org/2000/svg"><g><path d="m58.645 31.652a11.494 11.494 0 0 0 -7.1 2.457 1.552 1.552 0 0 1 -1.9 0 11.493 11.493 0 0 0 -7.1-2.458c-6.626 0-12.016 5.7-12.016 12.7a13.026 13.026 0 0 0 4.1 9.55 5.652 5.652 0 0 1 1.943 4.283c0 .152-.006.306-.006.46a16.106 16.106 0 0 0 5.578 12.456 3.165 3.165 0 0 0 2.04.749 3.22 3.22 0 0 0 1.387-.317 3.18 3.18 0 0 0 1.829-2.947l-.005-.548c0-7.75 2.372-11.811 3.192-11.811s3.191 4.061 3.191 11.811v.549a3.209 3.209 0 0 0 5.26 2.515 16.1 16.1 0 0 0 5.59-12.454c0-.152 0-.3 0-.456a5.651 5.651 0 0 1 1.937-4.291 13.026 13.026 0 0 0 4.1-9.55c-.004-7-5.395-12.698-12.02-12.698zm5.541 19.685a9.221 9.221 0 0 0 -3.063 6.944v.366a12.909 12.909 0 0 1 -3.845 9.333c-.011-7.358-2.106-15.254-6.691-15.254s-6.681 7.9-6.692 15.253a12.911 12.911 0 0 1 -3.845-9.332c0-.121 0-.24 0-.365a9.228 9.228 0 0 0 -3.05-6.945 9.514 9.514 0 0 1 -2.975-6.983c0-5.074 3.82-9.2 8.516-9.2a8.023 8.023 0 0 1 4.956 1.723 5.051 5.051 0 0 0 6.2 0 8.023 8.023 0 0 1 4.956-1.723c4.7 0 8.516 4.128 8.516 9.2a9.517 9.517 0 0 1 -2.983 6.983z"/><path d="m109.293 96.375-22.437-22.437a4.107 4.107 0 0 0 -5.092-.564l-3.644-3.644a33.794 33.794 0 1 0 -8.249 8.246l3.647 3.647a4.086 4.086 0 0 0 .565 5.088l22.437 22.437a4.105 4.105 0 0 0 5.807 0l6.966-6.966a4.105 4.105 0 0 0 0-5.807zm-33.38-17.306-3.257-3.257c.58-.5 1.152-1.033 1.709-1.589s1.087-1.131 1.59-1.709l3.256 3.257zm-46.613-7.321a30.119 30.119 0 1 1 45.834-3.843c-.219.32-.458.634-.7.946a29.727 29.727 0 0 1 -5.471 5.463c-.3.23-.6.46-.939.689a30.005 30.005 0 0 1 -38.724-3.255zm77.523 27.959-6.966 6.966a.605.605 0 0 1 -.857 0l-22.442-22.437a.607.607 0 0 1 0-.858l6.966-6.966a.607.607 0 0 1 .857 0l22.437 22.437a.607.607 0 0 1 0 .858z"/></g></svg>